<svg width="143" height="42" viewBox="0 0 143 42" fill="none" xmlns="http://www.w3.org/2000/svg">
<g clip-path="url(#clip0_379_5803)">
<path d="M1.23276 42V39.5294H0V32.1176H1.23276V29.6471H2.46552V27.1765H3.69828V24.7059H4.93103V22.2353H6.16379V19.7647H7.39655V17.2941H8.62931V14.8235H9.86207V12.3529H8.62931V9.88235H7.39655V2.47059H8.62931V0H43.1466V4.94118H53.0086V7.41176H54.2414H55.4741V4.94118H62.8707V2.47059H76.431V4.94118H77.6638V7.41176H78.8966H80.1293V4.94118H88.7586V0H106.017V4.94118H141.767V7.41176H143V14.8235H141.767V17.2941H139.302V19.7647H136.836V22.2353H134.371V24.7059H131.905V27.1765H129.44H136.836V29.6471H138.069V37.0588H136.836V39.5294H108.483V37.0588H99.8534V34.5882H98.6207V32.1176H97.3879V29.6471H94.9224V32.1176H93.6897V34.5882H92.4569V37.0588H70.2672V34.5882H67.8017V37.0588H33.2845V34.5882H32.0517V32.1176H30.819V24.7059H32.0517V22.2353H22.1897V24.7059H20.9569V27.1765H19.7241V29.6471H18.4914V32.1176H17.2586V34.5882H16.0259V37.0588H12.3276V39.5294H8.62931V42H1.23276ZM110.948 27.1765V24.7059H113.414V22.2353H115.879V19.7647H118.345V17.2941H113.414V19.7647H110.948V22.2353H108.483V24.7059H109.716V27.1765H110.948Z" fill="#FD1567"/>
<path d="M140.534 8.64712V6.17653H106.017V8.64712H104.784V1.23535H89.991V6.17653H81.3617V8.64712H80.129V11.1177H77.6635V8.64712H76.4307V6.17653H75.1979V3.70594H64.1031V6.17653H56.7066V8.64712H55.4738V11.1177H54.241V13.5883H53.0083V8.64712H51.7755V6.17653H41.9135V1.23535H9.86173V3.70594H8.62897V8.64712H9.86173V11.1177H12.3272V13.5883H11.0945V16.0589H9.86173V18.5295H8.62897V21.0001H7.39621V23.4706H6.16346V25.9412H4.9307V28.4118H3.69794V30.8824H2.46518V33.353H1.23242V38.2942H2.46518V40.7648H7.39621V38.2942H11.0945V35.8236H14.7928V33.353H16.0255V30.8824H17.2583V28.4118H18.491V25.9412H19.7238V23.4706H20.9566V21.0001H34.5169V23.4706H33.2841V25.9412H32.0514V30.8824H33.2841V33.353H34.5169V35.8236H66.5686V33.353H67.8014V30.8824H69.0341V28.4118H70.2669V33.353H71.4997V35.8236H91.2238V33.353H92.4566V30.8824H93.6893V28.4118H94.9221V25.9412H97.3876V28.4118H98.6204V30.8824H99.8531V33.353H101.086V35.8236H109.715V38.2942H135.603V35.8236H136.836V30.8824H135.603V28.4118H128.207V25.9412H130.672V23.4706H133.138V21.0001H135.603V18.5295H138.069V16.0589H140.534V13.5883H141.767V8.64712H140.534ZM122.043 18.5295H119.577V21.0001H117.112V23.4706H114.646V25.9412H112.181V28.4118H108.482V25.9412H107.25V21.0001H109.715V18.5295H112.181V16.0589H114.646V13.5883H115.879V16.0589H122.043V18.5295Z" fill="#2F1260"/>
<path d="M36.9821 16.0588V14.8235H38.2148V12.3529H39.4476V9.88235H40.6804V4.94117H39.4476V2.47058H11.0942V4.94117H9.8614V7.41176H33.2838V9.88235H32.0511V12.3529H22.189V9.88235H14.7924V12.3529H13.5597V14.8235H12.3269V17.2941H11.0942V19.7647H9.8614V22.2353H8.62864V24.7059H7.39588V27.1765H6.16312V29.6471H4.93036V32.1176H3.6976V34.5882H2.46484V37.0588H4.93036V34.5882H8.62864V32.1176H12.3269V29.6471H13.5597V27.1765H14.7924V24.7059H16.0252V22.2353H17.2579V19.7647H18.4907V17.2941H36.9821V16.0588Z" fill="#FFF20F"/>
<path d="M107.249 28.4118V27.1765H106.016V24.7059H104.784V22.2353H102.318V19.7647H104.784V17.2941H107.249V14.8235H109.715V12.3529H112.18V9.88235H114.646V7.41176H107.249V9.88235H104.784V12.3529H102.318V14.8235H99.8527V17.2941H96.1544V14.8235H97.3872V12.3529H98.6199V9.88235H99.8527V7.41176H101.085V4.94117H102.318V2.47058H91.2234V4.94117H93.6889V7.41176H92.4562V9.88235H91.2234V12.3529H89.9906V14.8235H88.7579V17.2941H87.5251V19.7647H86.2924V22.2353H85.0596V24.7059H83.8268V27.1765H82.5941V29.6471H81.3613V32.1176H88.7579V29.6471H89.9906V27.1765H91.2234V24.7059H92.4562V22.2353H97.3872V24.7059H98.6199V27.1765H99.8527V29.6471H101.085V32.1176H108.482V29.6471H107.249V28.4118Z" fill="#FFF20F"/>
<path d="M57.9384 9.88233H56.7056V12.3529H55.4729V14.8235H54.2401V17.2941H53.0073V19.7647H51.7746V22.2353H50.5418V24.7059H49.3091V27.1764H41.9125V24.7059H43.1453V22.2353H44.378V19.7647H45.6108V17.2941H46.8435V14.8235H48.0763V12.3529H49.3091V9.88233H50.5418V7.41174H43.1453V9.88233H41.9125V12.3529H40.6798V14.8235H39.447V17.2941H38.2142V19.7647H36.9815V22.2353H35.7487V24.7059H34.516V27.1764H33.2832V29.647H34.516V32.1176H54.2401V29.647H55.4729V27.1764H56.7056V24.7059H57.9384V22.2353H59.1711V19.7647H60.4039V17.2941H61.6367V14.8235H62.8694V12.3529H64.1022V9.88233H65.3349V7.41174H57.9384V9.88233Z" fill="#FFF20F"/>
<path d="M81.3622 25.9412V24.7059H82.595V22.2353H83.8277V19.7647H85.0605V17.2941H86.2932V14.8235H87.526V12.3529H88.7588V9.88234H89.9915V7.41175H82.595V9.88234H81.3622V12.3529H80.1294V14.8235H77.6639V12.3529H76.4312V9.88234H75.1984V7.41175H73.9657V4.94116H65.3363V7.41175H67.8019V9.88234H66.5691V12.3529H65.3363V14.8235H64.1036V17.2941H62.8708V19.7647H61.6381V22.2353H60.4053V24.7059H59.1725V27.1765H57.9398V29.647H56.707V32.1176H64.1036V29.647H65.3363V27.1765H66.5691V24.7059H67.8019V22.2353H69.0346V19.7647H70.2674V17.2941H72.7329V19.7647H73.9657V22.2353H75.1984V24.7059H73.9657V27.1765H72.7329V29.647H71.5001V32.1176H78.8967V29.647H80.1294V27.1765H81.3622V25.9412Z" fill="#FFF20F"/>
<path d="M117.111 7.41174V9.88233H115.879V12.3529H128.206V14.8235H125.741V17.2941H123.275V19.7647H120.81V22.2353H118.344V24.7059H115.879V27.1765H113.413V29.647H110.948V32.1176H109.715V34.5882H133.137V32.1176H134.37V29.647H120.81V27.1765H123.275V24.7059H125.741V22.2353H128.206V19.7647H130.672V17.2941H133.137V14.8235H135.603V12.3529H138.068V9.88233H139.301V7.41174H117.111Z" fill="#FFF20F"/>
</g>
<defs>
<clipPath id="clip0_379_5803">
<rect width="143" height="42" fill="white"/>
</clipPath>
</defs>
</svg>
